<?xml version="1.0" encoding="UTF-8" standalone="no"?>
<svg
   xmlns:dc="http://purl.org/dc/elements/1.1/"
   xmlns:cc="http://creativecommons.org/ns#"
   xmlns:rdf="http://www.w3.org/1999/02/22-rdf-syntax-ns#"
   xmlns:svg="http://www.w3.org/2000/svg"
   xmlns="http://www.w3.org/2000/svg"
   viewBox="0 0 258.66666 258.66666"
   height="258.66666"
   width="258.66666"
   xml:space="preserve"
   id="svg2"
   version="1.1"><metadata
     id="metadata8"><rdf:RDF><cc:Work
         rdf:about=""><dc:format>image/svg+xml</dc:format><dc:type
           rdf:resource="http://purl.org/dc/dcmitype/StillImage" /></cc:Work></rdf:RDF></metadata><defs
     id="defs6" /><g
     transform="matrix(1.3333333,0,0,-1.3333333,0,258.66667)"
     id="g10"><g
       transform="scale(0.1)"
       id="g12"><path
         id="path14"
         style="fill:#ffffff;fill-opacity:1;fill-rule:evenodd;stroke:none"
         d="M 2.59766,1933.23 H 1930.16 V 5.66797 H 2.59766 V 1933.23" /><path
         id="path16"
         style="fill:#ed1c24;fill-opacity:1;fill-rule:evenodd;stroke:none"
         d="m 1132.91,1214.59 c 18.28,0 37.55,-8.89 57.32,-25.94 20.26,-17.79 33.85,-38.79 40.02,-62.51 7.17,-27.43 2.23,-53.12 -14.32,-76.59 -19.77,-28.17 -54.61,-50.905 -105.01,-67.952 h 412.12 c 7.91,77.832 28.17,138.362 60.78,181.352 28.17,37.06 63.75,59.05 106.99,65.72 37.55,5.93 75.35,-0.24 113.16,-18.28 36.32,-17.3 63.49,-40.76 81.53,-70.42 l 10.38,16.56 c 2.97,5.19 4.94,10.13 5.93,14.82 -54.11,53.12 -112.17,84.5 -173.45,94.63 -54.11,8.65 -106.49,0.25 -158.13,-24.95 -46.2,-22.73 -84.99,-55.35 -115.87,-98.09 -29.9,-42.01 -46.21,-84.01 -47.69,-126.51 h -130.46 c 33.36,22 55.1,46.95 64.49,75.12 8.89,25.2 7.41,50.15 -3.95,74.86 -11.12,23.22 -29.41,42.25 -54.36,57.07 -26.19,15.32 -54.85,22.73 -85.49,22.73 H 846.547 l -1.484,-227.3 -195.684,-1.24 -122.305,226.07 H 422.316 L 300.012,1015.45 H 95.1875 l -22.4844,-42.997 258.9339,0.988 105.75,203.839 107.234,-203.839 416.078,1.239 v 239.91 h 172.211" /><path
         id="path18"
         style="fill:#3d40a0;fill-opacity:1;fill-rule:evenodd;stroke:none"
         d="M 571.301,898.086 686.688,679.914 h 128.48 L 681.004,932.922 H 51.9453 l -21,-37.555 H 240.715 L 132.246,679.914 h 52.383 l 115.383,218.172 h 271.289" /><path
         id="path20"
         style="fill:#3d40a0;fill-opacity:1;fill-rule:evenodd;stroke:none"
         d="m 1318.46,885.73 c -20.5,27.922 -46.69,44.969 -78.07,51.887 l -128.23,-1.484 c 44.96,-7.41 78.56,-23.469 100.55,-48.426 19.28,-21.496 27.68,-46.207 25.2,-74.863 -1.73,-26.438 -11.85,-49.418 -30.39,-68.938 -19.02,-20.011 -41.01,-29.894 -66.21,-29.894 L 955.754,715 V 935.145 L 845.063,933.91 V 678.93 H 1129.7 c 69.43,-0.496 123.53,11.609 161.34,36.07 32.37,21 50.16,48.426 53.86,82.77 2.72,30.64 -5.93,60.039 -26.44,87.96" /><path
         id="path22"
         style="fill:#3d40a0;fill-opacity:1;fill-rule:evenodd;stroke:none"
         d="m 1901.81,778.004 -24.46,40.766 c -29.9,-42.743 -64.98,-72.145 -105.5,-88.454 -37.8,-15.316 -75.36,-17.539 -112.42,-5.433 -37.56,12.109 -68.69,35.824 -93.4,71.898 -26.19,38.543 -41.75,86.481 -46.2,143.059 h -123.54 c 2.23,-63.25 23.23,-118.102 63.5,-165.047 36.57,-42.992 83.26,-73.383 140.34,-90.922 56.58,-17.547 111.68,-19.027 165.05,-3.707 57.32,16.305 102.78,48.922 136.63,97.84" /></g></g></svg>